<svg width="102" height="102" viewBox="0 0 102 102" fill="none" xmlns="http://www.w3.org/2000/svg">
<path d="M17.5815 88.192C20.6231 81.026 27.7246 76 36 76H66C74.2755 76 81.377 81.026 84.4185 88.192M71 38.5C71 49.5455 62.0455 58.5 51 58.5C39.9543 58.5 31 49.5455 31 38.5C31 27.4543 39.9543 18.5 51 18.5C62.0455 18.5 71 27.4543 71 38.5ZM101 51C101 78.614 78.614 101 51 101C23.3857 101 1 78.614 1 51C1 23.3857 23.3857 1 51 1C78.614 1 101 23.3857 101 51Z" stroke="black" stroke-width="2" stroke-linecap="round" stroke-linejoin="round"/>
</svg>
