<svg width="44" height="42" viewBox="0 0 44 42" fill="none" xmlns="http://www.w3.org/2000/svg">
<path d="M25.4667 2.55876L41.15 12.7529C41.7042 13.1132 41.9813 13.2933 42.1821 13.5335C42.3598 13.7462 42.4931 13.9922 42.5746 14.2571C42.6667 14.5563 42.6667 14.8868 42.6667 15.5478V30.8221C42.6667 34.3225 42.6667 36.0725 41.9854 37.4096C41.3863 38.5857 40.4302 39.5417 39.2542 40.1409C37.9171 40.8221 36.1671 40.8221 32.6667 40.8221H11C7.49967 40.8221 5.7495 40.8221 4.41256 40.1409C3.23654 39.5417 2.28042 38.5857 1.68121 37.4096C1 36.0725 1 34.3225 1 30.8221V15.5478C1 14.8868 1 14.5563 1.09202 14.2571C1.17348 13.9922 1.30698 13.7462 1.48469 13.5335C1.68544 13.2933 1.96252 13.1132 2.51671 12.7529L18.2 2.55876M25.4667 2.55876C24.1515 1.70394 23.494 1.27655 22.7854 1.11023C22.1592 0.963255 21.5075 0.963255 20.8813 1.11023C20.1727 1.27655 19.5152 1.70394 18.2 2.55876M25.4667 2.55876L38.3669 10.944C39.8 11.8754 40.5165 12.3412 40.7646 12.9318C40.9815 13.4479 40.9815 14.0297 40.7646 14.5458C40.5165 15.1364 39.8 15.6022 38.3669 16.5336L25.4667 24.9188C24.1515 25.7736 23.494 26.2011 22.7854 26.3673C22.1592 26.5144 21.5075 26.5144 20.8813 26.3673C20.1727 26.2011 19.5152 25.7736 18.2 24.9188L5.29971 16.5336C3.86669 15.6022 3.15019 15.1364 2.90202 14.5458C2.68517 14.0297 2.68517 13.4479 2.90202 12.9318C3.15019 12.3412 3.86669 11.8755 5.29971 10.944L18.2 2.55876M41.625 36.6555L27.7858 24.1555M15.8809 24.1555L2.04167 36.6555" stroke="black" stroke-width="2" stroke-linecap="round" stroke-linejoin="round"/>
</svg>
