<svg width="53" height="48" viewBox="0 0 53 48" fill="none" xmlns="http://www.w3.org/2000/svg">
<path d="M22.9437 6.34704C23.9825 6.19348 25.0538 6.11111 26.1573 6.11111C39.2034 6.11111 47.7642 17.6235 50.6403 22.1774C50.9883 22.7286 51.1624 23.0041 51.2597 23.4293C51.3331 23.7485 51.3328 24.2522 51.2597 24.5714C51.1621 24.9964 50.987 25.2739 50.6364 25.8288C49.87 27.0414 48.7019 28.7459 47.154 30.5946M12.674 10.494C7.14866 14.2421 3.39762 19.4496 1.67686 22.1735C1.32718 22.7271 1.15236 23.0038 1.05491 23.4288C0.981721 23.748 0.981696 24.2515 1.05484 24.5709C1.15225 24.9959 1.32629 25.2714 1.67435 25.8226C4.5504 30.3766 13.1112 41.8889 26.1573 41.8889C31.4176 41.8889 35.9489 40.0172 39.6721 37.4846M3.15732 1L49.1573 47M20.7362 18.5788C19.3488 19.9663 18.4907 21.883 18.4907 24C18.4907 28.2343 21.9232 31.6667 26.1573 31.6667C28.2743 31.6667 30.191 30.8085 31.5784 29.4211" stroke="black" stroke-width="2" stroke-linecap="round" stroke-linejoin="round"/>
</svg>
