<svg width="52" height="52" viewBox="0 0 52 52" fill="none" xmlns="http://www.w3.org/2000/svg">
<path d="M39.8889 17.6665C39.8889 16.2448 39.3464 14.8231 38.2617 13.7383C37.1769 12.6535 35.755 12.1111 34.3333 12.1111M34.3333 34.3333C43.5381 34.3333 51 26.8714 51 17.6667C51 8.46192 43.5381 1 34.3333 1C25.1286 1 17.6667 8.46192 17.6667 17.6667C17.6667 18.4269 17.7176 19.1752 17.8161 19.9084C17.9783 21.1144 18.0593 21.7175 18.0048 22.0989C17.9479 22.4964 17.8756 22.7103 17.6797 23.0608C17.4917 23.3972 17.1603 23.7286 16.4976 24.3914L2.30175 38.5872C1.82133 39.0675 1.58111 39.3078 1.40933 39.5881C1.25703 39.8367 1.14481 40.1075 1.07675 40.3911C1 40.7108 1 41.0506 1 41.7297V46.5556C1 48.1114 1 48.8892 1.30275 49.4833C1.56908 50.0061 1.99403 50.4308 2.51669 50.6972C3.11089 51 3.88875 51 5.44444 51H12.1111V45.4444H17.6667V39.8889H23.2222L27.6086 35.5025C28.2714 34.8397 28.6028 34.5083 28.9392 34.3203C29.2897 34.1244 29.5036 34.0519 29.9011 33.9953C30.2825 33.9406 30.8856 34.0217 32.0917 34.1839C32.8247 34.2825 33.5731 34.3333 34.3333 34.3333Z" stroke="black" stroke-width="2" stroke-linecap="round" stroke-linejoin="round"/>
</svg>
